PathFileType	4	(X/Y/Z)	/Users/niels/Desktop/University/Third Semester/Perception and Action/Exam/Gymnastics Motion Tracking/Code for Gym Tracking/Analyzed Data/Webcam_Backflip/id1_5_baseline_Sports2D/id1_5_baseline_Sports2D_px_person00.trc
DataRate	CameraRate	NumFrames	NumMarkers	Units	OrigDataRate	OrigDataStartFrame	OrigNumFrames
29.87551867219917	29.87551867219917	12	22	m	29.87551867219917	30	241
Frame#	Time	Hip			RHip			RKnee			RAnkle			RBigToe			RSmallToe			RHeel			LHip			LKnee			LAnkle			LBigToe			LSmallToe			LHeel			Neck			Head			Nose			RShoulder			RElbow			RWrist			LShoulder			LElbow			LWrist		
		X1	Y1	Z1	X2	Y2	Z2	X3	Y3	Z3	X4	Y4	Z4	X5	Y5	Z5	X6	Y6	Z6	X7	Y7	Z7	X8	Y8	Z8	X9	Y9	Z9	X10	Y10	Z10	X11	Y11	Z11	X12	Y12	Z12	X13	Y13	Z13	X14	Y14	Z14	X15	Y15	Z15	X16	Y16	Z16	X17	Y17	Z17	X18	Y18	Z18	X19	Y19	Z19	X20	Y20	Z20	X21	Y21	Z21	X22	Y22	Z22
30	1.0041666666666667	0.9176971358185986	-0.5999758811755634	0.0	0.9183818633257967	-0.5974573036984584	0.0	0.9195907536289677	-0.6998175378290504	0.0	0.9059338716882577	-0.8100163990692935	0.0	0.9500545477098742	-0.8272160059513598	0.0	0.9444072399153361	-0.8317153137991675	0.0	0.894857305167873	-0.8275126798748312	0.0	0.9242909190185666	-0.5964812486466193	0.0	0.9207764489094473	-0.6983410531802435	0.0	0.9081597277040426	-0.8057152596782163	0.0	0.949408611559548	-0.8228415823153349	0.0	0.945116294304464	-0.8211475761869631	0.0	0.8953545576553799	-0.8218836279964882	0.0	0.9412841664403202	-0.4414075715369981	0.0	0.9824243175476638	-0.3783927191908254	0.0	0.983011449605927	-0.4244463080073504	0.0	0.9297491460982151	-0.45830837294769583	0.0	0.9562280210445291	-0.5283861150418212	0.0	1.022088447388977	-0.5558759942797514	0.0	0.9246166253790127	-0.4570423528868193	0.0	0.9378941940275548	-0.5251171785700228	0.0	0.976906143930175	-0.5538268832908709	0.0
31	1.037638888888889	0.9178244837927838	-0.6001653409127775	0.0	0.9180561493845326	-0.5978511613665876	0.0	0.9191115447923359	-0.7002463086315982	0.0	0.9058699436360124	-0.809776567556927	0.0	0.9503342650720474	-0.8271004982296	0.0	0.944348048728029	-0.8314327937437838	0.0	0.8950997704026231	-0.8270399912142115	0.0	0.9244485557774943	-0.5968499845347043	0.0	0.9206835062479469	-0.6990664241466717	0.0	0.9084249017664036	-0.805667247524343	0.0	0.9492437490868469	-0.8232703121742357	0.0	0.945300771512258	-0.8213511345114147	0.0	0.8954822849110401	-0.8213804837700195	0.0	0.941224878275561	-0.44112501985614155	0.0	0.9794743788314152	-0.37757618824746936	0.0	0.9826587815073095	-0.42356785759553217	0.0	0.9306216077549274	-0.4582146999808816	0.0	0.9651205224890235	-0.5244730316799032	0.0	1.0321024473647273	-0.543718862481326	0.0	0.9253944029256564	-0.4569651437325404	0.0	0.949755136841848	-0.5215093852961623	0.0	0.9970836913187581	-0.5416559354019026	0.0
32	1.0711111111111111	0.9179607433444671	-0.6001154607604933	0.0	0.9179139762022069	-0.5979815084580031	0.0	0.9188935674938391	-0.7003980143599804	0.0	0.9058561522599707	-0.8095434370198111	0.0	0.9507286669835073	-0.8266305196347549	0.0	0.9442049508802133	-0.8307604279581208	0.0	0.895398234395895	-0.8265106376149759	0.0	0.9244257576109793	-0.5969336167135223	0.0	0.9207980110679129	-0.6995614316768604	0.0	0.9086449405425248	-0.8055627308575376	0.0	0.9491937006801656	-0.8236049065882068	0.0	0.9454987062589875	-0.821520306083487	0.0	0.8955819434700599	-0.8205328246214486	0.0	0.9412708272585242	-0.4407467793972167	0.0	0.976464766322961	-0.37668464480188396	0.0	0.98231023488023	-0.4224198924481859	0.0	0.9315645550480576	-0.45806381431740306	0.0	0.9734228276959981	-0.5199401489478492	0.0	1.0405961433499333	-0.5312448410888727	0.0	0.9267924010509331	-0.4568169753236363	0.0	0.9617024880662689	-0.5172825525549309	0.0	1.0172283037775154	-0.5293363573209464	0.0
33	1.1045833333333333	0.9180349834062704	-0.5998036644367166	0.0	0.9179012138323892	-0.5977135052843733	0.0	0.91893305925402	-0.7002447493360637	0.0	0.9059075399376335	-0.8093134002455824	0.0	0.9511618893503304	-0.8259538792654153	0.0	0.9440385044379896	-0.8298979729640292	0.0	0.8956842663329111	-0.826026400201811	0.0	0.9241783197842807	-0.5965637583382006	0.0	0.9209790217653393	-0.6997441837720418	0.0	0.9088038897181138	-0.8054066328503494	0.0	0.9491961431133799	-0.8237774511649941	0.0	0.945663548202618	-0.821615253349124	0.0	0.8955713373200783	-0.819547748983728	0.0	0.9414655487693271	-0.4403190885212354	0.0	0.9737570636940934	-0.3754550756134719	0.0	0.9820531876079943	-0.42093336656447405	0.0	0.9326765355587913	-0.45778142966222246	0.0	0.9809189982264019	-0.5149796664610276	0.0	1.0475743001239557	-0.5188782111705581	0.0	0.9284350222719165	-0.4564763563377632	0.0	0.972211227153584	-0.5125142633614508	0.0	1.0334713869304915	-0.5173652312910285	0.0
34	1.1380555555555556	0.9180588850410577	-0.5992195869015557	0.0	0.9179849123195012	-0.596991528852532	0.0	0.9191575554936171	-0.6998314554313103	0.0	0.9060067526422824	-0.809068794210233	0.0	0.9514692219806402	-0.8253534188505273	0.0	0.9438328284735588	-0.8291541492641373	0.0	0.895946012322322	-0.8256728999816657	0.0	0.9237977285268254	-0.5957088227525784	0.0	0.9211284385274082	-0.6996046873344041	0.0	0.9089283163364624	-0.8051792714740278	0.0	0.9491993907246339	-0.8237514491866389	0.0	0.9457447067700173	-0.8215787492500318	0.0	0.8955489879314371	-0.8187139412759551	0.0	0.9417882139381849	-0.43983960498819996	0.0	0.9715420154991379	-0.37382079639363647	0.0	0.98193450823826	-0.41912783756929617	0.0	0.9339626218775281	-0.45728959530800933	0.0	0.9875240265631653	-0.5097245048317668	0.0	1.0530858565052068	-0.5068911454325581	0.0	0.9299182238528422	-0.4558310250669942	0.0	0.9806148359633062	-0.5073432731089148	0.0	1.04458580287496	-0.5059369715041802	0.0
35	1.1715277777777777	0.9180934944334777	-0.5983352112433639	0.0	0.9181789340587568	-0.5958041239518646	0.0	0.9194788306490735	-0.6992099630275853	0.0	0.9061270950731107	-0.8087730331409658	0.0	0.9514949889193907	-0.8250278005081985	0.0	0.9435595097113625	-0.8287478769214217	0.0	0.8961848297044954	-0.8254529495659413	0.0	0.9234324550220226	-0.5944217886738138	0.0	0.9212277754339618	-0.6991668803545538	0.0	0.9090731907493863	-0.8048519833217184	0.0	0.9491648371048038	-0.8235341907127225	0.0	0.9457040938322663	-0.8213608708011816	0.0	0.8956764401183169	-0.8182124645594944	0.0	0.9421814321188764	-0.4392633913757218	0.0	0.9698380112273682	-0.37187971536482123	0.0	0.9819474134686665	-0.4170812949851176	0.0	0.9353525705733482	-0.4565262272257618	0.0	0.9932264018792009	-0.5042795235203739	0.0	1.057287908748056	-0.49543521876925284	0.0	0.9309923954136692	-0.45481720495065264	0.0	0.9869533145969223	-0.5019035670594924	0.0	1.0513035990122843	-0.49508908749068103	0.0
36	1.205	0.9181977218069367	-0.5971792956400089	0.0	0.9184992673204886	-0.594234999743747	0.0	0.9198334198488847	-0.6984487873126894	0.0	0.9062656433400351	-0.808390290158472	0.0	0.951201609717716	-0.8249610285983828	0.0	0.9432510346223707	-0.8286685881680697	0.0	0.8963989143403986	-0.8252741514237415	0.0	0.9231835448054238	-0.5928332061525249	0.0	0.9213174633632735	-0.6985059441569716	0.0	0.9092729719209159	-0.8044125413497849	0.0	0.9491064375492346	-0.8231884136323476	0.0	0.9455624369713926	-0.8209552481530821	0.0	0.8959905856185554	-0.8180053336158079	0.0	0.942590449894089	-0.4385423940939895	0.0	0.9685949472872923	-0.36981945696510893	0.0	0.9820468190024845	-0.41493658076926027	0.0	0.9367439600112265	-0.4555041313134321	0.0	0.9980424266602952	-0.49876696480474053	0.0	1.0604837826987688	-0.48466396594623273	0.0	0.9316741349736758	-0.45349557514582484	0.0	0.9916344107316208	-0.496329281265362	0.0	1.0550807163267961	-0.48488348399537196	0.0
37	1.2384722222222222	0.9183951882819742	-0.5958624621059577	0.0	0.9189212974038313	-0.592457073098825	0.0	0.9201904124273624	-0.6976508943321816	0.0	0.9064491365938768	-0.8079097743263361	0.0	0.9507149055811651	-0.8249474181067075	0.0	0.942994301714879	-0.8286822144363367	0.0	0.8966069405675405	-0.8249890938351272	0.0	0.9230551895940405	-0.5911181725575237	0.0	0.9214577456050144	-0.6977464676003365	0.0	0.9095067855063933	-0.8038756947542782	0.0	0.9490998654558662	-0.8228257285061026	0.0	0.9454037000443091	-0.8204334585420705	0.0	0.8963295969785475	-0.8178598424678257	0.0	0.9430000345769998	-0.4376556957162773	0.0	0.9677592458811797	-0.36788017579120236	0.0	0.9821744255235725	-0.41289549127357156	0.0	0.9380527823679526	-0.4543367544824319	0.0	1.0020326127452543	-0.493385838806372	0.0	1.0630386345076002	-0.47485211455478565	0.0	0.9321690161702125	-0.4520622438556909	0.0	0.9951797493027583	-0.49083318984633617	0.0	1.0573151415266835	-0.47549397953757266	0.0
38	1.2719444444444445	0.9186632349709855	-0.5945130364600886	0.0	0.9193792178604839	-0.5906684498781339	0.0	0.9205531271985655	-0.6969252383120301	0.0	0.9066974739811701	-0.8073550756218091	0.0	0.9502801354477242	-0.8247333521884637	0.0	0.9429038026181191	-0.8284878368122132	0.0	0.8968583669947701	-0.8244873021577079	0.0	0.9229875270710092	-0.5894533347963782	0.0	0.9216955871282692	-0.6970143989928282	0.0	0.9097160415737882	-0.8032889386104968	0.0	0.9492394731131141	-0.8225370107140244	0.0	0.9453231692179077	-0.8198997765665542	0.0	0.8964374444467197	-0.8175034215259969	0.0	0.9434547866807331	-0.4366278506826071	0.0	0.9672716256288821	-0.3663000205892817	0.0	0.9822964209600331	-0.41116442441694795	0.0	0.9392398693869873	-0.4531829420739625	0.0	1.005278398964098	-0.4884572931763325	0.0	1.065284438555055	-0.4664776752629807	0.0	0.9327050076464577	-0.4507477949417292	0.0	0.9980377505183612	-0.4857591740160289	0.0	1.0589999069584335	-0.46729371817022125	0.0
39	1.3054166666666667	0.9189473501852945	-0.5932298840941307	0.0	0.9197895048134254	-0.5890530558767132	0.0	0.9209600681574662	-0.6963432418016364	0.0	0.9069944079305624	-0.8067760703346434	0.0	0.9501426246568091	-0.8241975329794596	0.0	0.9430836461253633	-0.8279280940477861	0.0	0.8971953496647984	-0.8237775006784323	0.0	0.9229448605413805	-0.5879961431249537	0.0	0.9220689898070943	-0.6963852523794314	0.0	0.9098648671621732	-0.8026978839642847	0.0	0.949579104155635	-0.8223038331993414	0.0	0.9453795692010635	-0.819383467814157	0.0	0.8961713111674264	-0.816812086778524	0.0	0.9440319112961543	-0.4355269983378775	0.0	0.9670632521038145	-0.3652299791705466	0.0	0.9824462889082537	-0.40987137081369757	0.0	0.9403033996272888	-0.45217752530569466	0.0	1.0078045002089102	-0.4844453934170141	0.0	1.0674815937259359	-0.4602535792140906	0.0	0.9334098283743544	-0.44971717690579244	0.0	1.0004498244160331	-0.4816007470980595	0.0	1.060700252622094	-0.46096149804435416	0.0
40	1.338888888888889	0.9191858543444973	-0.5920958986960598	0.0	0.9200744335345737	-0.5877560625513197	0.0	0.9214828339652681	-0.6959271222530523	0.0	0.9073088593428453	-0.8062196435712279	0.0	0.950392965978766	-0.8234150593752652	0.0	0.9435165205785181	-0.8270727679737581	0.0	0.8975987501588577	-0.8229529963812946	0.0	0.922965023309401	-0.5868468755710715	0.0	0.9226321362743098	-0.6958732042753191	0.0	0.909981508729116	-0.8020881335294863	0.0	0.9500797067131771	-0.8220143136460479	0.0	0.9455807879517343	-0.8188289458985692	0.0	0.8956416488185356	-0.8158635207732543	0.0	0.9447871390350419	-0.4344580620060064	0.0	0.9671114382990086	-0.3646679947534904	0.0	0.9827338062496407	-0.40901991392625225	0.0	0.9412729168118871	-0.4514200969473478	0.0	1.0095548793637583	-0.4819516644295976	0.0	1.069770125578637	-0.45706807525252774	0.0	0.9342629421712133	-0.44904500781571083	0.0	1.0023900080739838	-0.4789922048486128	0.0	1.062634244730293	-0.4574709544384536	0.0
41	1.3723611111111111	0.9193268851272117	-0.5911894015332865	0.0	0.9201843939363522	-0.5868656385975531	0.0	0.9222341907838092	-0.6956538094661979	0.0	0.9076276717905839	-0.8056910318380458	0.0	0.9509091033223113	-0.8225798232768939	0.0	0.9440207910598699	-0.8261282478695242	0.0	0.8979815905124182	-0.8220877507032613	0.0	0.923122821299088	-0.5860207973938564	0.0	0.923455089797534	-0.6954440357679665	0.0	0.9101366720895258	-0.8013868300888907	0.0	0.950619749575825	-0.8215663309200908	0.0	0.9458834711224495	-0.8181820163324466	0.0	0.8951452728069641	-0.814830427692655	0.0	0.9457273517973773	-0.43357512290679723	0.0	0.9675020032288015	-0.3644886505405892	0.0	0.9832934851889853	-0.408537383708341	0.0	0.9422038168143597	-0.45100157127363527	0.0	1.010425436558345	-0.4816055157365555	0.0	1.0720562136017047	-0.45788768392031187	0.0	0.9351232412181355	-0.4487250163679953	0.0	1.0036069591554393	-0.4785855217409353	0.0	1.0646932739908077	-0.4579148745169232	0.0
